<?xml version="1.0" encoding="iso-8859-1"?>
<!-- Uploaded to: SVG Repo, www.svgrepo.com, Generator: SVG Repo Mixer Tools -->
<svg height="800px" width="800px" version="1.1" id="Layer_1" xmlns="http://www.w3.org/2000/svg" xmlns:xlink="http://www.w3.org/1999/xlink" 
	 viewBox="0 0 504.131 504.131" xml:space="preserve">
<circle style="fill:#0EE565;" cx="252.065" cy="252.069" r="252.062"/>
<path style="fill:#00C67F;" d="M73.834,73.823c98.43-98.43,258.032-98.43,356.462,0c98.438,98.446,98.446,258.032,0,356.478"/>
<path style="fill:#1D2321;" d="M399.568,238.529l-7.806-115.57c1.048-1.662,1.591-3.505,1.591-5.813
	c0-24.489-61.503-44.339-137.271-44.339c-67.797,0-124.006,15.911-135.097,36.801c-4.679,2.489-8.027,7.215-8.389,12.847
	l-8.192,116.279c-3.245,4.041-5.939,9.121-5.939,14.706v112.908c0,9.783,7.263,18.188,15.754,21.788v19.551
	c0,13.06,10.587,21.614,23.631,21.614h23.631c13.044,0,23.631-8.554,23.631-21.614v-17.77h133.908v17.77
	c0,13.06,10.587,21.614,23.631,21.614h23.631c13.044,0,23.631-8.554,23.631-21.614v-19.551c8.476-3.6,15.754-11.997,15.754-21.788
	V253.44C405.665,247.761,402.924,242.609,399.568,238.529z M137.196,232.377l5.868-94.523h217.844l5.86,94.523H137.196z"/>
<path style="fill:#363D3B;" d="M391.431,122.959c1.048-1.662,1.757-3.505,1.757-5.813c0-24.489-61.416-44.339-137.184-44.339
	c-67.797,0-123.967,15.911-135.058,36.801c-2.402,1.276-4.419,3.151-5.892,5.427l27.782,27.097l0.228-4.277h217.844l5.86,94.523
	H229.805l160.106,157.538v-1.788c8.476-3.6,15.754-11.997,15.754-21.788v-112.9c0-5.679-2.741-10.831-6.097-14.911L391.431,122.959z
	"/>
</svg>